<svg version="1.1" id="Layer_1" xmlns="http://www.w3.org/2000/svg" xmlns:xlink="http://www.w3.org/1999/xlink" x="0px" y="0px"
	 width="100%" viewBox="0 0 58 59" enable-background="new 0 0 58 59" xml:space="preserve">
<path fill="#FBFCFB" opacity="1.000000" stroke="none" 
	d="
M40.001724,60.000000 
	C26.667974,60.000000 13.834688,60.000000 1.001053,60.000000 
	C1.000702,40.333874 1.000702,20.667749 1.000351,1.001219 
	C20.332720,1.000813 39.665440,1.000813 58.998619,1.000406 
	C58.999077,20.665979 58.999077,40.331959 58.999538,59.998970 
	C52.834064,60.000000 46.668129,60.000000 40.001724,60.000000 
M19.084393,14.330306 
	C19.258125,12.382726 19.431856,10.435144 19.605589,8.487564 
	C17.640396,8.955167 15.573187,9.187354 13.748087,9.978244 
	C12.644804,10.456341 11.669726,11.668168 11.070206,12.783218 
	C9.655903,15.413681 10.036877,17.213015 13.604912,17.205622 
	C15.376692,17.201952 17.149136,17.519218 18.116919,18.078302 
	C8.078534,23.273779 7.380466,26.786299 14.716441,35.183979 
	C14.934210,35.433266 15.144411,35.689201 15.356596,35.943329 
	C17.763508,38.826019 17.366474,40.349503 13.439577,41.316315 
	C10.201752,42.113472 7.203729,43.884632 4.099437,45.224159 
	C4.167375,45.824554 4.235313,46.424946 4.303251,47.025341 
	C6.230137,47.105659 8.157024,47.185974 10.410332,47.667896 
	C10.949179,47.198658 11.488025,46.729424 12.515188,46.160500 
	C12.515188,46.160500 12.981247,45.983917 13.656926,45.999966 
	C14.446990,45.420826 15.237054,44.841690 16.708261,43.967335 
	C18.460623,43.261608 20.212982,42.555885 22.193228,42.322414 
	C22.814547,42.079662 23.435865,41.836914 24.694641,41.228249 
	C25.019468,40.804317 25.704992,40.114651 25.616827,39.994980 
	C22.774620,36.137070 19.762321,32.402039 16.986063,28.498837 
	C15.178341,25.957315 15.198576,23.561480 18.589249,22.202349 
	C22.277145,20.724083 25.974430,19.269241 30.628542,17.767620 
	C30.968857,19.156437 31.309170,20.545254 31.033180,22.131882 
	C31.036211,23.424158 31.039244,24.716434 31.054161,26.815607 
	C29.367191,31.782600 29.208569,36.842567 29.561560,42.396503 
	C30.124435,43.873856 30.687313,45.351212 31.250191,46.828564 
	C32.509693,46.240875 33.769196,45.653191 35.348820,44.510902 
	C35.592129,43.241718 35.835438,41.972538 35.994415,40.164333 
	C35.635181,39.779736 35.275948,39.395138 34.839565,38.217422 
	C35.959183,32.041161 41.162045,33.939747 44.988785,33.765522 
	C45.365360,34.519218 45.741936,35.272915 46.091900,36.834736 
	C45.596931,39.199203 45.101963,41.563675 44.079754,44.064114 
	C44.101906,44.719738 44.124058,45.375366 44.206955,46.754078 
	C44.718430,47.499496 45.229904,48.244919 45.741379,48.990337 
	C46.587448,48.108074 47.922134,47.358170 48.202633,46.322697 
	C50.541237,37.689667 52.756973,29.020956 54.822479,20.318556 
	C55.190956,18.766088 54.693806,17.008169 54.576252,15.002140 
	C50.031582,16.434793 49.047852,19.094843 48.729538,22.795927 
	C48.538422,25.018087 47.216938,28.338039 45.564934,28.968945 
	C42.857906,30.002771 39.468086,29.248734 35.743389,29.248734 
	C36.352993,26.476114 36.838028,24.270077 37.860115,21.941650 
	C37.857616,21.283905 37.855118,20.626160 37.880131,19.143679 
	C38.187424,15.541424 36.232872,15.330196 33.564430,16.311796 
	C32.271770,16.787308 31.027113,17.393316 29.360069,17.137892 
	C28.210056,16.371662 27.016420,14.919033 25.919537,14.988748 
	C23.922701,15.115660 21.983299,16.146210 19.925318,16.189695 
	C19.518526,15.767700 19.111736,15.345704 19.084393,14.330306 
z"/>
<path fill="#76BD61" opacity="1.000000" stroke="none" 
	d="
M44.606995,43.928143 
	C45.101963,41.563675 45.596931,39.199203 46.327774,36.188049 
	C46.034431,34.724808 45.505215,33.908249 44.975998,33.091686 
	C41.162045,33.939747 35.959183,32.041161 34.836220,38.930595 
	C35.248161,39.996964 35.663452,40.350159 36.078747,40.703354 
	C35.835438,41.972538 35.592129,43.241718 34.860291,44.808952 
	C30.948673,46.775673 31.188231,43.497166 30.132381,41.968380 
	C29.208569,36.842567 29.367191,31.782600 31.276953,26.140158 
	C31.549658,24.287828 31.599571,23.110950 31.649485,21.934071 
	C31.309170,20.545254 30.968857,19.156437 30.189987,17.815155 
	C29.751432,17.862688 29.760723,17.940243 29.760723,17.940243 
	C31.027113,17.393316 32.271770,16.787308 33.564430,16.311796 
	C36.232872,15.330196 38.187424,15.541424 37.662083,19.761261 
	C37.403709,20.940573 37.363384,21.502306 37.323059,22.064037 
	C36.838028,24.270077 36.352993,26.476114 35.743389,29.248734 
	C39.468086,29.248734 42.857906,30.002771 45.564934,28.968945 
	C47.216938,28.338039 48.538422,25.018087 48.729538,22.795927 
	C49.047852,19.094843 50.031582,16.434793 54.576252,15.002140 
	C54.693806,17.008169 55.190956,18.766088 54.822479,20.318556 
	C52.756973,29.020956 50.541237,37.689667 48.202633,46.322697 
	C47.922134,47.358170 46.587448,48.108074 45.741379,48.990337 
	C45.229904,48.244919 44.718430,47.499496 44.382935,46.186928 
	C44.574944,45.055897 44.590969,44.492020 44.606995,43.928143 
z"/>
<path fill="#323232" opacity="1.000000" stroke="none" 
	d="
M29.560396,17.539066 
	C29.760723,17.940243 29.751432,17.862688 29.709526,17.833439 
	C25.974430,19.269241 22.277145,20.724083 18.589249,22.202349 
	C15.198576,23.561480 15.178341,25.957315 16.986063,28.498837 
	C19.762321,32.402039 22.774620,36.137070 25.616827,39.994980 
	C25.704992,40.114651 25.019468,40.804317 24.107620,41.312683 
	C23.002180,41.548134 22.483761,41.699146 21.965343,41.850159 
	C20.212982,42.555885 18.460623,43.261608 16.053675,44.007202 
	C14.593141,44.692684 13.787193,45.338299 12.981246,45.983917 
	C12.981247,45.983917 12.515188,46.160500 11.945782,46.104946 
	C10.945555,46.455025 10.514732,46.860661 10.083911,47.266293 
	C8.157024,47.185974 6.230137,47.105659 4.303251,47.025341 
	C4.235313,46.424946 4.167375,45.824554 4.099437,45.224159 
	C7.203729,43.884632 10.201752,42.113472 13.439577,41.316315 
	C17.366474,40.349503 17.763508,38.826019 15.356596,35.943329 
	C15.144411,35.689201 14.934210,35.433266 14.716441,35.183979 
	C7.380466,26.786299 8.078534,23.273779 18.491005,17.867615 
	C18.865089,17.656929 19.023403,17.530670 19.233021,17.294060 
	C19.635069,16.971539 19.827501,16.885628 20.019932,16.799715 
	C21.983299,16.146210 23.922701,15.115660 25.919537,14.988748 
	C27.016420,14.919033 28.210056,16.371662 29.560396,17.539066 
z"/>
<path fill="#373737" opacity="1.000000" stroke="none" 
	d="
M19.023403,17.530670 
	C19.023403,17.530670 18.865089,17.656929 18.893185,17.674110 
	C17.149136,17.519218 15.376692,17.201952 13.604912,17.205622 
	C10.036877,17.213015 9.655903,15.413681 11.070206,12.783218 
	C11.669726,11.668168 12.644804,10.456341 13.748087,9.978244 
	C15.573187,9.187354 17.640396,8.955167 19.605589,8.487564 
	C19.431856,10.435144 19.258125,12.382726 18.502668,14.864902 
	C18.288431,16.109890 18.655918,16.820280 19.023403,17.530670 
z"/>
<path fill="#E1EDDD" opacity="1.000000" stroke="none" 
	d="
M29.846970,42.182442 
	C31.188231,43.497166 30.948673,46.775673 34.700226,45.086254 
	C33.769196,45.653191 32.509693,46.240875 31.250191,46.828564 
	C30.687313,45.351212 30.124435,43.873856 29.846970,42.182442 
z"/>
<path fill="#E1EDDD" opacity="1.000000" stroke="none" 
	d="
M31.341331,22.032976 
	C31.599571,23.110950 31.549658,24.287828 31.271009,25.736710 
	C31.039244,24.716434 31.036211,23.424158 31.341331,22.032976 
z"/>
<path fill="#E1EDDD" opacity="1.000000" stroke="none" 
	d="
M44.982391,33.428604 
	C45.505215,33.908249 46.034431,34.724808 46.341080,35.783989 
	C45.741936,35.272915 45.365360,34.519218 44.982391,33.428604 
z"/>
<path fill="#E1EDDD" opacity="1.000000" stroke="none" 
	d="
M13.319086,45.991940 
	C13.787193,45.338299 14.593141,44.692684 15.713102,44.154808 
	C15.237054,44.841690 14.446990,45.420826 13.319086,45.991940 
z"/>
<path fill="#E1EDDD" opacity="1.000000" stroke="none" 
	d="
M19.233021,17.294060 
	C18.655918,16.820280 18.288431,16.109890 18.312944,15.161604 
	C19.111736,15.345704 19.518526,15.767700 19.972626,16.494705 
	C19.827501,16.885628 19.635069,16.971539 19.233021,17.294060 
z"/>
<path fill="#E1EDDD" opacity="1.000000" stroke="none" 
	d="
M37.591587,22.002844 
	C37.363384,21.502306 37.403709,20.940573 37.648327,20.173628 
	C37.855118,20.626160 37.857616,21.283905 37.591587,22.002844 
z"/>
<path fill="#E1EDDD" opacity="1.000000" stroke="none" 
	d="
M22.079285,42.086288 
	C22.483761,41.699146 23.002180,41.548134 23.788891,41.495644 
	C23.435865,41.836914 22.814547,42.079662 22.079285,42.086288 
z"/>
<path fill="#E1EDDD" opacity="1.000000" stroke="none" 
	d="
M44.343376,43.996128 
	C44.590969,44.492020 44.574944,45.055897 44.352562,45.825382 
	C44.124058,45.375366 44.101906,44.719738 44.343376,43.996128 
z"/>
<path fill="#E1EDDD" opacity="1.000000" stroke="none" 
	d="
M10.247122,47.467094 
	C10.514732,46.860661 10.945555,46.455025 11.701624,46.154789 
	C11.488025,46.729424 10.949179,47.198658 10.247122,47.467094 
z"/>
<path fill="#E1EDDD" opacity="1.000000" stroke="none" 
	d="
M36.036583,40.433846 
	C35.663452,40.350159 35.248161,39.996964 34.874794,39.327152 
	C35.275948,39.395138 35.635181,39.779736 36.036583,40.433846 
z"/>
</svg>